<?xml version="1.0" standalone="no"?>
<!DOCTYPE svg PUBLIC "-//W3C//DTD SVG 20010904//EN"
 "http://www.w3.org/TR/2001/REC-SVG-20010904/DTD/svg10.dtd">
<svg version="1.0" xmlns="http://www.w3.org/2000/svg"
 width="250.000000pt" height="250.000000pt" viewBox="0 0 250.000000 250.000000"
 preserveAspectRatio="xMidYMid meet">
<metadata>
Created by potrace 1.11, written by Peter Selinger 2001-2013
</metadata>
<g transform="translate(0.000000,250.000000) scale(0.100000,-0.100000)"
fill="#000000" stroke="none">
<path d="M1118 2485 c-2 -2 -30 -7 -63 -10 -33 -4 -63 -9 -67 -11 -4 -3 -41
-13 -83 -24 -75 -19 -88 -24 -214 -83 -172 -79 -356 -238 -466 -402 -22 -33
-42 -62 -45 -65 -3 -3 -27 -48 -52 -100 -45 -92 -94 -237 -105 -310 -3 -19 -9
-55 -13 -80 -9 -48 -6 -308 4 -350 4 -14 9 -40 12 -59 11 -66 64 -216 106
-301 23 -47 45 -87 48 -90 3 -3 23 -32 45 -65 22 -33 51 -72 65 -86 14 -15 41
-44 60 -65 102 -114 267 -226 425 -288 39 -15 78 -32 87 -37 10 -5 27 -9 39
-9 11 0 28 -4 37 -9 17 -9 46 -15 152 -31 30 -4 118 -7 195 -5 121 4 171 10
304 40 13 3 32 10 43 16 10 5 18 7 18 3 0 -3 6 -2 13 3 6 5 35 18 62 28 65 24
143 66 231 125 128 86 230 185 312 305 15 22 30 42 34 45 8 6 99 184 115 225
57 149 77 266 78 445 0 146 -7 207 -34 310 -93 362 -339 660 -676 819 -104 50
-193 78 -300 97 -16 3 -50 9 -74 14 -41 7 -286 12 -293 5z"/>
</g>
</svg>
